<svg width="512" height="512" version="1.1" xmlns="http://www.w3.org/2000/svg" desc="Created with imagetracer.js version 1.2.6" ><path fill="rgb(0,0,0)" stroke="rgb(0,0,0)" stroke-width="1" opacity="0" d="M 0 0 L 512 0 L 512 512 L 0 512 L 0 0 Z M 369 176 L 344 184 L 336 191 L 281 192 L 280 193 L 259 194 L 258 195 Q 250 194 247 189 L 235 190 L 234 191 L 221 191 L 220 192 L 205 192 L 191 186 L 178 183 L 173 183 L 168 181 L 154 180 L 152 178 L 135 178 L 114 183 L 99 193 L 72 203 L 60 206 L 48 215 L 41 223 L 38 238 L 38 243 L 41 255 L 50 271 Q 49 273 52 272 L 56 277 Q 58 276 57 279 L 64 281 Q 67 280 66 283 L 70 283 L 72 283 L 79 287 Q 81 286 80 290 L 64 303 L 59 302 Q 45 302 37 307 L 31 314 L 29 321 L 30 330 L 36 333 Q 38 332 37 335 L 39 335 L 39 337 L 43 338 L 46 337 L 48 338 Q 55 340 57 336 L 99 336 L 100 337 L 104 336 Q 107 335 106 331 L 110 328 L 132 322 L 154 327 L 165 327 L 175 329 L 193 329 L 194 330 L 196 329 L 217 329 L 218 328 L 222 329 L 239 328 L 243 325 L 246 328 L 243 334 L 243 337 L 241 339 Q 238 338 239 341 L 236 343 L 231 343 L 226 347 Q 220 352 217 360 L 218 366 L 223 369 L 237 369 Q 237 372 242 371 L 242 369 Q 248 367 250 370 L 250 368 L 256 367 L 257 368 Q 256 365 261 366 L 262 369 L 273 375 L 279 374 L 286 358 L 282 359 Q 281 354 277 352 L 290 337 Q 291 330 288 329 Q 285 330 286 323 L 292 318 L 303 316 L 310 313 L 314 313 L 361 296 L 361 299 L 341 320 L 331 330 L 329 330 L 329 333 L 322 344 L 322 350 L 328 355 L 343 360 L 355 359 L 366 355 L 413 331 L 421 329 Q 429 322 430 308 L 433 307 L 431 302 Q 443 304 449 299 L 450 297 Q 451 292 448 291 L 455 285 L 471 267 L 475 256 L 482 252 L 478 243 L 479 241 L 478 223 L 472 211 L 466 205 Q 456 204 451 200 L 436 199 L 415 193 L 396 192 L 391 181 Q 384 174 369 176 Z " /><path fill="rgb(0,0,0)" stroke="rgb(0,0,0)" stroke-width="1" opacity="0" d="M 364.5 285 L 370 285.5 L 363.5 293 Q 361.3 293.8 362 291.5 L 360 288.5 L 364.5 285 Z " /><path fill="rgb(22,51,44)" stroke="rgb(22,51,44)" stroke-width="1" opacity="0.9921568627450981" d="M 157.5 180 L 161 180.5 L 157.5 181 L 157.5 180 Z " /><path fill="rgb(22,51,44)" stroke="rgb(22,51,44)" stroke-width="1" opacity="0.9921568627450981" d="M 164.5 182 L 167 182.5 L 164.5 183 L 164.5 182 Z " /><path fill="rgb(22,51,44)" stroke="rgb(22,51,44)" stroke-width="1" opacity="0.9921568627450981" d="M 370.5 186 Q 380.1 184.6 384 187 Q 385 190.8 382.5 192 L 356.5 192 L 355 190.5 L 370.5 186 Z M 372 187 L 361 190 L 361 191 L 383 191 L 383 190 L 381 187 L 372 187 Z " /><path fill="rgb(22,51,44)" stroke="rgb(22,51,44)" stroke-width="1" opacity="0.9921568627450981" d="M 134.5 189 L 147.5 190 L 148.5 191 L 170.5 192 L 174 193.5 L 169.5 194 L 168.5 193 L 148.5 192 L 147.5 191 L 131.5 191 L 123.5 197 L 105.5 200 L 94.5 205 Q 92.7 202.2 86.5 204 L 74.5 207 L 66.5 211 L 57 219.5 Q 51.3 225.3 49 234.5 L 49 248.5 L 50.5 251 L 52.5 251 Q 60.4 258.1 72.5 261 L 110.5 269 L 128.5 270 L 129.5 269 L 151.5 268 L 152.5 267 L 160.5 267 L 167.5 265 L 179.5 264 L 182 266.5 L 182 268.5 Q 183.5 272.9 180.5 272 L 177.5 274 L 165.5 275 L 158.5 277 L 138.5 278 L 137.5 279 L 111.5 279 L 110.5 278 L 99.5 277 L 95.5 275 L 85.5 274 L 59.5 267 L 60.5 269 L 76.5 277 L 98.5 280 L 118.5 292 L 141.5 300 L 164.5 304 L 211.5 305 L 212.5 304 L 221.5 304 L 223 306.5 L 222 313 L 241.5 314 Q 248.9 316.1 253 321.5 L 255.5 325 L 262 324 L 262 326 L 266 328 L 266 330.5 L 250.5 347 L 242 349.5 Q 244.3 350.8 241.5 352 L 239 352.5 L 241 353.5 Q 238.5 357.3 232 356 Q 230.7 359.3 235.5 358 L 235.5 359 L 230 358.5 L 232.5 355 L 236 353.5 L 235.5 352 Q 237.8 352.8 237 350.5 L 235 346 L 228 345.5 Q 229.5 342.5 235.5 344 L 239.5 345 L 241 342 Q 238 343 239 340 Q 241.7 341.1 241 338.5 L 244 336.5 L 245 340.5 L 243.5 343 L 246 344.5 L 246.5 346 L 248 345.5 L 248.5 347 L 262 334.5 L 263 331.5 L 261 331.5 Q 262.1 328.2 259.5 329 L 257.5 328 L 256 328.5 L 256.5 327 L 253.5 328 L 253 324.5 L 247.5 319 L 242.5 316 L 237.5 315 L 222.5 315 L 221 313.5 L 221 306.5 L 219.5 306 L 218.5 307 L 189.5 308 L 188.5 307 L 172.5 307 L 164.5 305 L 154.5 305 L 145.5 302 L 139.5 302 L 133.5 299 L 129.5 299 L 127.5 297 L 111.5 291 L 97.5 281 L 91.5 281 L 71.5 277 L 59.5 270 L 55 265.5 Q 53.9 262.2 56.5 263 L 59.5 265 L 61 264.5 L 60.5 266 L 70 267.5 L 69.5 269 L 81.5 270 L 85.5 272 L 85.5 270 L 88 271.5 L 87.5 273 L 98.5 274 L 100.5 274 L 102 274.5 L 100 275.5 L 107.5 277 L 143.5 277 L 144.5 276 L 157 275.5 L 155 274.5 L 158.5 273 L 159.5 274 L 167 274 L 167 271 L 174.5 271 L 173.5 269 L 166.5 268 Q 164.5 272 156.5 270 Q 154.8 267.3 148.5 269 L 148.5 270 L 153 270.5 L 141.5 271 Q 139.7 268.2 133.5 270 L 133.5 271 L 140 271.5 Q 136.3 273.8 129.5 273 L 128.5 272 L 120.5 272 Q 119 274.5 113.5 273 Q 110 270 103 270.5 L 106 269.5 L 101.5 269 L 97.5 270 Q 95.8 266.7 90 267.5 L 93 266.5 L 89.5 266 Q 88.3 268.3 83.5 267 L 83.5 265 L 76.5 265 L 71 263.5 L 73 262.5 L 70.5 262 L 67.5 263 L 52.5 255 Q 50.8 257.8 49 253.5 L 47 246.5 L 47 235.5 L 53 222.5 L 59.5 215 L 67.5 209 L 76.5 205 L 86.5 203 L 93.5 203 L 96.5 204 L 104.5 199 L 122.5 196 Q 126.6 190.6 134.5 189 Z M 77 263 L 77 264 L 80 264 L 77 263 Z M 172 266 L 172 267 L 174 267 L 172 266 Z M 111 270 L 111 271 L 115 271 L 111 270 Z M 170 272 L 170 273 L 175 273 L 170 272 Z " /><path fill="rgb(22,51,44)" stroke="rgb(22,51,44)" stroke-width="1" opacity="0.9921568627450981" d="M 352.5 193 L 382 193.5 L 352.5 194 L 352.5 193 Z " /><path fill="rgb(22,51,44)" stroke="rgb(22,51,44)" stroke-width="1" opacity="0.9921568627450981" d="M 175.5 194 L 188.5 196 L 198.5 200 L 206 200.5 L 204 201.5 L 226.5 202 L 227.5 201 L 252.5 200 L 259.5 204 L 265.5 204 L 275.5 202 L 380.5 201 L 381.5 202 L 404.5 202 Q 406 204.5 411.5 203 L 421.5 205 L 430.5 209 L 446.5 209 L 456 216.5 L 459 222.5 L 460 228.5 L 468 237.5 L 468 242.5 L 466 247.5 L 457 257.5 L 455 262 Q 457.7 260.9 457 263.5 L 457 265.5 L 454 272 L 439 283.5 L 439.5 285 L 441 284.5 L 440 287.5 L 442 288.5 L 438 291.5 Q 440.3 292.8 437.5 294 L 435.5 293 L 430 294.5 L 431 297 L 427.5 298 L 426 296.5 L 425 287.5 L 425 285.5 L 431 275.5 L 432 264.5 L 427.5 260 L 422.5 260 L 420.5 261 L 416.5 260 L 412 263.5 L 409 269.5 L 409 273 L 396 273.5 L 408 274.5 L 396.5 275 L 390 274 L 391 257.5 L 395 247.5 L 404 233 L 411 232 L 412 227 L 414 226.5 L 412 226 Q 413.3 223 409.5 224 L 406.5 223 L 406.5 224 L 408 224.5 L 405.5 225 L 403.5 225 L 400 226.5 Q 400.8 228.8 398.5 228 L 392.5 233 L 400.5 224 L 412.5 220 L 418 224.5 L 417 226.5 L 418 228.5 Q 414.3 233.3 406.5 234 L 403 237.5 L 400 245 Q 397.3 243.9 398 246.5 L 394 254.5 L 391 272 Q 396 273.3 397.5 270 L 408 270 Q 407.3 266.6 410 265.5 L 408.5 263 L 405.5 269 L 395.5 269 L 394.5 270 L 394 262.5 L 395 259 L 400 258 L 401.5 255 L 404 256 L 405 253.5 L 404 251 L 408 253 L 408.5 250 L 411 251.5 Q 409.9 248.2 412.5 249 L 414.5 252 L 416.5 250 L 419.5 253 L 420.5 252 L 423 253.5 L 424 257 L 426 257.5 L 420 258 Q 421.3 254.7 416.5 256 L 416.5 257 L 419 257.5 L 411 259 L 410 263.5 L 411 263.5 L 412 260 L 414.5 259 L 428.5 259 L 432 261.5 L 432.5 263 L 434 262.5 L 435 268.5 Q 432.7 269.8 434 274.5 L 435 274.5 L 436 265.5 L 435 263 L 438 261.5 Q 437.3 259.3 439.5 260 L 441 263 L 443 262.5 L 441 258 Q 438 259.3 439 255.5 L 431.5 249 L 425.5 249 L 418 246 L 417 240.5 L 420.5 235 Q 429.5 234 434.5 237 Q 444.6 240.9 450 249.5 L 453 256.5 L 451 262.5 L 453 261.5 L 466 245.5 L 467 237.5 L 459 228.5 Q 458 217.5 450.5 213 Q 445 208.5 433.5 210 Q 431.7 212.8 425.5 211 L 423 210 L 421.5 207 L 416.5 205 L 401.5 204 L 400.5 203 L 353.5 202 L 352.5 203 L 281.5 203 L 280.5 204 L 268.5 204 L 267.5 205 L 248.5 207 L 245 206 Q 246.5 202.2 243.5 203 L 242.5 202 L 230.5 202 L 229.5 203 L 201.5 203 Q 191.2 196.3 175.5 195 L 175.5 194 Z M 255 204 L 255 205 L 258 205 L 255 204 Z M 429 237 L 429 239 L 425 241 L 427 241 L 428 244 L 427 246 L 435 247 L 434 249 L 437 250 Q 439 249 438 252 L 441 253 L 443 257 L 449 255 L 447 251 L 435 241 L 437 240 L 437 239 L 432 240 Q 429 239 431 238 L 429 237 Z M 449 263 L 449 265 L 446 266 L 450 268 L 449 272 L 454 270 L 454 266 L 452 269 L 451 269 Q 453 262 449 263 Z M 433 275 L 433 278 Q 436 277 433 275 Z M 445 275 L 443 276 L 443 277 L 446 276 L 445 275 Z M 442 277 L 437 281 L 438 282 L 442 279 L 442 277 Z M 432 278 L 429 282 Q 428 284 431 283 L 432 281 L 432 278 Z M 429 283 L 428 289 L 434 289 L 435 290 L 434 287 L 429 288 L 429 283 Z M 435 283 L 434 287 L 435 287 L 435 283 Z " /><path fill="rgb(22,51,44)" stroke="rgb(22,51,44)" stroke-width="1" opacity="0.9921568627450981" d="M 414.5 233 L 424 233.5 L 414.5 234 L 414.5 233 Z " /><path fill="rgb(22,51,44)" stroke="rgb(22,51,44)" stroke-width="1" opacity="0.9921568627450981" d="M 391.5 234 L 390 236.5 L 381 251.5 L 378 259.5 L 378 267.5 L 375.5 270 Q 365.4 271.9 358.5 277 L 357 273 L 339 280 L 340 274.5 L 354 258.5 L 353.5 257 L 355.5 258 L 360 255.5 L 362 252.5 L 360 247 L 357 246.5 L 360.5 246 L 364.5 247 L 367 249.5 L 366 251.5 L 367.5 254 L 365 254 Q 366.7 258.1 362.5 257 Q 361.2 259.3 356.5 258 L 347 266.5 L 341 277 L 356.5 271 L 358 275 L 374.5 269 L 377 266.5 Q 376.1 258.1 379 253.5 L 391.5 234 Z " /><path fill="rgb(22,51,44)" stroke="rgb(22,51,44)" stroke-width="1" opacity="0.9921568627450981" d="M 410.5 235 Q 416.4 232.9 415 237.5 Q 412.4 241.4 406.5 242 L 404 241 L 407.5 236 L 410.5 235 Z " /><path fill="rgb(22,51,44)" stroke="rgb(22,51,44)" stroke-width="1" opacity="0.9921568627450981" d="M 130.5 243 L 147.5 243 L 151 244 L 153 249.5 L 152 253.5 L 146.5 259 Q 141.5 262 132.5 261 Q 124.2 258.9 120 252.5 L 120 247.5 L 122 244 L 129.5 244 L 130.5 243 Z M 126 245 L 121 250 L 121 253 Q 124 252 123 255 L 130 259 L 145 259 L 147 258 L 151 253 L 150 248 L 148 245 L 126 245 Z " /><path fill="rgb(22,51,44)" stroke="rgb(22,51,44)" stroke-width="1" opacity="0.9921568627450981" d="M 352.5 247 L 356 247.5 L 350.5 249 L 338 260.5 L 328.5 276 L 328 274.5 Q 335.1 259.6 347.5 250 L 352.5 247 Z " /><path fill="rgb(22,51,44)" stroke="rgb(22,51,44)" stroke-width="1" opacity="0.9921568627450981" d="M 48.5 266 L 53 269 L 55.5 273 L 58.5 275 L 73 282 L 72.5 284 L 69 283 Q 70.1 280.3 67.5 281 L 53 273 L 51.5 270 L 49 268.5 L 48.5 266 Z " /><path fill="rgb(22,51,44)" stroke="rgb(22,51,44)" stroke-width="1" opacity="0.9921568627450981" d="M 72.5 267 L 75 267.5 L 72.5 268 L 72.5 267 Z " /><path fill="rgb(22,51,44)" stroke="rgb(22,51,44)" stroke-width="1" opacity="0.9921568627450981" d="M 145.5 274 L 148 274.5 L 145.5 275 L 145.5 274 Z " /><path fill="rgb(22,51,44)" stroke="rgb(22,51,44)" stroke-width="1" opacity="0.9921568627450981" d="M 327.5 277 L 328 278.5 L 327 282.5 L 323.5 286 L 298.5 293 L 295 291 L 295 286 L 293.5 286 L 291.5 284 L 276.5 280 L 251.5 280 Q 250 282.5 244.5 281 L 240 283.5 L 240.5 285 L 238 286.5 L 240 287 L 239 289.5 L 240.5 290 L 242 289.5 Q 241.2 292.1 244.5 291 L 245.5 290 L 270.5 289 Q 272.3 291.8 278.5 290 L 281 291.5 L 277.5 292 L 276.5 291 L 261.5 290 L 260.5 291 L 247.5 291 Q 243.9 293.9 236.5 293 L 235 290.5 Q 237.3 289.2 234.5 288 L 233 287.5 L 236 285.5 L 234 284.5 L 239.5 281 L 250.5 279 L 276.5 279 L 291.5 283 L 298 287.5 Q 296.7 291.7 301.5 290 L 314.5 286 L 318.5 286 L 326 281.5 L 327.5 277 Z " /><path fill="rgb(22,51,44)" stroke="rgb(22,51,44)" stroke-width="1" opacity="0.9921568627450981" d="M 376.5 279 Q 378.8 278.3 378 280.5 Q 380.8 282.3 376.5 284 L 374.5 283 L 370.5 285 L 368.5 284 L 366.5 285 L 368.5 282 L 376.5 279 Z M 372 282 L 371 284 L 373 283 L 372 282 Z " /><path fill="rgb(22,51,44)" stroke="rgb(22,51,44)" stroke-width="1" opacity="0.9921568627450981" d="M 407.5 281 Q 410.1 280.3 409 283 L 411 283 L 411 285.5 Q 412.3 292.3 416.5 296 Q 419.5 295.1 418 299.5 L 417 300.5 L 417 309 Q 420.3 307.7 419 312.5 L 418 316.5 L 414.5 320 L 408.5 321 L 358.5 347 L 352 348.5 L 354 349.5 L 351.5 350 L 349.5 350 L 340.5 349 L 338.5 350 L 338.5 349 L 340 348.5 L 336.5 348 L 334.5 349 L 334.5 348 L 336 347.5 L 333 345.5 L 335 342.5 L 334 340.5 L 335 340.5 L 335.5 342 L 339 336.5 L 338.5 335 L 339.5 336 L 343 332.5 L 344.5 330 Q 346.8 330.8 346 328.5 L 344 328.5 L 346.5 325 L 346 326.5 L 346.5 328 Q 350.7 326.2 348 324.5 L 378.5 293 L 385.5 289 L 384.5 291 L 377 297.5 L 341 335.5 L 335 343.5 L 335 346 L 346.5 349 L 366.5 342 L 410.5 319 L 416 318 L 418 310.5 L 416.5 311 Q 413.5 311.9 415 307.5 L 416 306.5 L 416 296.5 Q 410.4 292.2 410 284 Q 407 282 399.5 283 L 390.5 286 L 390 284.5 L 391.5 283 L 406.5 282 L 407.5 281 Z M 358 315 L 356 318 L 359 316 L 358 315 Z M 354 319 L 352 322 L 355 320 L 354 319 Z M 351 322 L 349 325 L 352 323 L 351 322 Z " /><path fill="rgb(22,51,44)" stroke="rgb(22,51,44)" stroke-width="1" opacity="0.9921568627450981" d="M 388.5 287 L 390 287.5 L 387.5 289 L 388.5 287 Z " /><path fill="rgb(22,51,44)" stroke="rgb(22,51,44)" stroke-width="1" opacity="0.9921568627450981" d="M 282.5 292 L 291 294 L 291 298.5 L 280 313.5 L 280 316 L 284 318.5 L 286 323 L 282.5 323 L 279 321 L 278 314.5 L 288 301.5 L 289 296.5 Q 287.3 293.3 282.5 293 L 282.5 292 Z " /><path fill="rgb(22,51,44)" stroke="rgb(22,51,44)" stroke-width="1" opacity="0.9921568627450981" d="M 88.5 296 L 92.5 296 L 100 303.5 L 105.5 311 L 114 314 L 112.5 317 L 102.5 320 L 85.5 322 L 83 323 L 82.5 325 L 69.5 325 L 69.5 324 L 77.5 324 L 82.5 321 L 90.5 321 L 96.5 319 L 101.5 319 L 111 315.5 L 105.5 313 L 101 308.5 L 92.5 297 L 87.5 298 L 67.5 315 L 60.5 315 L 59.5 314 L 50.5 314 Q 43.9 314.9 41 319.5 L 41 326 L 44.5 326 L 45.5 325 L 65.5 325 L 65.5 326 L 46.5 326 L 43 327.5 L 45 328.5 L 43 329 Q 44.3 332 40.5 331 L 40.5 332 L 43 332 Q 41.5 335.8 44.5 335 L 44.5 336 L 37 335 L 34 330.5 L 39 327.5 L 40 318.5 L 42.5 316 Q 48.4 311.4 60.5 313 L 65.5 314 L 82.5 302 L 88.5 296 Z " /><path fill="rgb(22,51,44)" stroke="rgb(22,51,44)" stroke-width="1" opacity="0.9921568627450981" d="M 285.5 326 L 285 327.5 L 281.5 333 L 277 334 L 267 346.5 L 268 348.5 Q 264.3 350.4 266 357 L 257 354.5 L 261.5 354 L 265 355 L 264 348.5 L 282.5 328 L 285.5 326 Z " /><path fill="rgb(22,51,44)" stroke="rgb(22,51,44)" stroke-width="1" opacity="0.9921568627450981" d="M 331.5 329 L 331 330.5 L 328 337 Q 325.3 338.1 326 335.5 L 331.5 329 Z " /><path fill="rgb(22,51,44)" stroke="rgb(22,51,44)" stroke-width="1" opacity="0.9921568627450981" d="M 49.5 335 L 56 336.5 L 47.5 338 L 47 336 L 49.5 335 Z " /><path fill="rgb(22,51,44)" stroke="rgb(22,51,44)" stroke-width="1" opacity="0.9921568627450981" d="M 250.5 355 L 256 355.5 L 245.5 358 L 239.5 358 L 239.5 357 L 244.5 357 L 250.5 355 Z " /><path fill="rgb(22,51,44)" stroke="rgb(22,51,44)" stroke-width="1" opacity="0.9921568627450981" d="M 249.5 366 L 257 366.5 L 237.5 370 L 237.5 369 L 249.5 366 Z " /><path fill="rgb(60,213,174)" stroke="rgb(60,213,174)" stroke-width="1" opacity="0.996078431372549" d="M 371.5 187 L 380.5 187 L 383 189.5 L 382.5 191 L 360.5 191 L 360.5 190 L 371.5 187 Z " /><path fill="rgb(60,213,174)" stroke="rgb(60,213,174)" stroke-width="1" opacity="0.996078431372549" d="M 131.5 191 L 147.5 191 L 148.5 192 L 159.5 192 L 160.5 193 L 174.5 194 L 187.5 197 L 201.5 203 L 229.5 203 L 230.5 202 L 242.5 202 L 245 203 Q 243.3 207.1 247.5 206 L 251.5 207 L 252.5 206 L 259.5 206 L 268.5 204 L 280.5 204 L 281.5 203 L 352.5 203 L 353.5 202 L 367.5 202 L 368.5 203 L 400.5 203 L 401.5 204 L 410.5 204 L 419.5 206 L 423 208.5 Q 422.3 210.8 424.5 210 Q 426.3 212.8 432.5 211 L 433.5 210 L 443.5 210 Q 451.9 212.2 456 218.5 L 458 226.5 L 467 237.5 L 467 240.5 L 464 248.5 L 451 263.5 L 451 268.5 L 452 268.5 L 453.5 266 L 454 270 L 446.5 274 L 446.5 273 L 449 271.5 L 450 267.5 L 446 265.5 L 449 265 Q 448 262 451 263 L 451 260.5 L 453 254.5 L 440.5 240 L 428.5 235 L 420.5 235 L 417 240.5 L 418 246 L 425.5 249 L 431.5 249 L 439 255.5 L 439 258 Q 441.7 256.9 441 259.5 L 443.5 263 L 445 263.5 L 443.5 264 L 441 263 L 439.5 260 Q 437.3 259.3 438 261.5 L 435 263 Q 436.8 265.4 436 271.5 L 434.5 275 L 434 269.5 L 435 267.5 L 433.5 262 L 432 262.5 L 430.5 260 L 428.5 259 L 414.5 259 L 412 260 L 410.5 264 L 410 261.5 L 411 259 L 419 257.5 L 416 256.5 L 420 256 Q 418.6 260 425.5 258 L 425.5 257 Q 423.3 257.8 424 255.5 L 421.5 252 L 419.5 253 L 416.5 250 L 414 251.5 L 412.5 249 Q 409.9 248.2 411 251.5 L 408 250.5 Q 409 254.3 406 253 Q 407 250 404 251 L 405 253.5 L 404 256 L 401.5 255 L 400 258 L 395 259 Q 393.3 262.5 394 269.5 L 395.5 269 L 405.5 269 L 407 267.5 L 408.5 263 L 410 265.5 Q 407.3 266.6 408 270 L 397.5 270 Q 396 273.3 391 272 L 394 254.5 L 398 245 Q 400.7 246.1 400 243.5 L 406.5 234 Q 414.3 233.3 418 228.5 L 417 225.5 L 418 224.5 L 414.5 221 L 412.5 220 L 400.5 224 L 392 232.5 L 379 253.5 Q 376.1 258.1 377 266.5 L 374.5 269 L 358 275 L 356.5 271 L 341 277 Q 344.3 267.3 352.5 261 L 356.5 258 L 365 257 Q 363.3 252.9 367.5 254 L 366 251.5 L 367 249.5 L 364.5 247 L 357.5 246 L 352.5 247 L 347.5 250 L 336 261.5 Q 329 269.5 326 281.5 L 323.5 284 L 298 290 Q 298.8 286.2 295.5 285 L 276.5 279 L 250.5 279 L 239.5 281 L 234 284.5 L 236 285.5 L 233 287.5 L 236 289.5 L 235 291.5 Q 236.5 294.5 242.5 293 L 247.5 291 L 267.5 290 L 268.5 291 L 281.5 292 L 289 296.5 L 288 301.5 L 278 314.5 L 278 318.5 L 279 321 L 282.5 323 L 286 323 Q 286.8 326.8 283.5 328 L 273 337.5 L 265 346.5 L 264 350.5 L 265 355 L 257.5 354 L 238.5 358 L 232 358 Q 230.6 354 237.5 356 L 241 353.5 L 239 352.5 L 243 350.5 L 242.5 349 Q 248.2 349.7 250.5 347 L 265 332.5 L 266 328 L 264 328 L 262 324 L 257.5 324 L 255.5 325 L 249.5 318 L 241.5 314 L 222 313 L 223 305.5 L 221.5 304 L 212.5 304 L 211.5 305 L 178.5 305 L 177.5 304 L 156.5 303 L 134.5 298 Q 113.8 291.7 98.5 280 L 76.5 277 Q 65.9 274.1 59 267.5 L 61.5 267 L 68.5 270 L 90.5 275 L 95.5 275 L 104.5 278 Q 110 276.5 111.5 279 L 137.5 279 L 138.5 278 L 148.5 278 L 149.5 277 L 158.5 277 L 165.5 275 L 171.5 275 L 182 272 L 181 267.5 Q 183.8 265.8 179.5 264 L 167.5 265 L 160.5 267 L 152.5 267 L 151.5 268 L 118.5 270 L 72.5 261 Q 59.6 257.9 51.5 250 L 50 250.5 L 49 248.5 L 49 234.5 Q 52.6 221.1 62.5 214 L 80.5 205 L 93.5 204 L 96.5 205 L 105.5 200 L 123.5 197 L 131.5 191 Z M 415 233 L 415 234 L 424 234 L 415 233 Z M 411 235 L 408 236 L 404 241 L 407 242 Q 412 241 415 238 Q 416 233 411 235 Z M 131 243 L 130 244 L 122 244 L 120 248 L 120 253 Q 124 259 133 261 Q 142 262 147 259 L 152 254 L 153 250 L 151 244 L 148 243 L 131 243 Z " /><path fill="rgb(60,213,174)" stroke="rgb(60,213,174)" stroke-width="1" opacity="0.996078431372549" d="M 49.5 269 L 53 271.5 Q 52.3 273.8 54.5 273 L 64.5 280 L 69 281 Q 70.1 284.3 66 283 Q 67.3 280 63.5 281 L 57 279 Q 58.1 276.3 55.5 277 L 51.5 272 Q 49.3 272.8 50 270.5 L 49.5 269 Z " /><path fill="rgb(60,213,174)" stroke="rgb(60,213,174)" stroke-width="1" opacity="0.996078431372549" d="M 432.5 275 Q 435.8 276.8 432 278.5 L 431 283 L 429 283 L 429 288 L 434 287 Q 433 283.2 435.5 282 L 435 283.5 L 434 287.5 L 435 289.5 L 433.5 289 Q 425.3 291.8 428 283.5 L 432.5 275 Z " /><path fill="rgb(60,213,174)" stroke="rgb(60,213,174)" stroke-width="1" opacity="0.996078431372549" d="M 444.5 275 L 446 275.5 L 442 277 L 440.5 280 L 437.5 282 L 437 280.5 L 444.5 275 Z " /><path fill="rgb(60,213,174)" stroke="rgb(60,213,174)" stroke-width="1" opacity="0.996078431372549" d="M 371.5 282 L 373 282.5 L 368.5 285 L 368.5 284 L 371.5 282 Z " /><path fill="rgb(60,213,174)" stroke="rgb(60,213,174)" stroke-width="1" opacity="0.996078431372549" d="M 399.5 283 Q 407 282 410 284 Q 410.4 292.2 416 296.5 L 416 306.5 L 415 311 L 417.5 310 L 418 312.5 L 416 318 L 410.5 319 L 357.5 346 L 345.5 349 L 335 346 L 335 343.5 L 341 335.5 L 383.5 291 L 390 288 L 391.5 285 L 399.5 283 Z " /><path fill="rgb(60,213,174)" stroke="rgb(60,213,174)" stroke-width="1" opacity="0.996078431372549" d="M 89.5 297 Q 95.3 296.3 96 300.5 L 105.5 313 L 111 315.5 L 101.5 319 L 96.5 319 L 90.5 321 L 82.5 321 L 77.5 324 L 45.5 325 L 41 326 Q 39.3 318 44.5 316 Q 49.9 312.9 59.5 314 Q 61.2 316.8 67.5 315 L 89.5 297 Z " /><path fill="rgb(60,213,174)" stroke="rgb(60,213,174)" stroke-width="1" opacity="0.996078431372549" d="M 48.5 337 L 55 337.5 L 48.5 338 L 48.5 337 Z " /><path fill="rgb(60,213,174)" stroke="rgb(60,213,174)" stroke-width="1" opacity="0.996078431372549" d="M 237.5 341 L 241 342 L 239.5 345 L 230 343.5 Q 235.8 344.3 237.5 341 Z " /><path fill="rgb(60,213,174)" stroke="rgb(60,213,174)" stroke-width="1" opacity="0.996078431372549" d="M 248.5 368 Q 250.8 367.3 250 369.5 L 248.5 368 Z " /><path fill="rgb(60,213,174)" stroke="rgb(60,213,174)" stroke-width="1" opacity="0.996078431372549" d="M 238.5 370 L 242 370.5 L 238.5 371 L 238.5 370 Z " /><path fill="rgb(1,4,3)" stroke="rgb(1,4,3)" stroke-width="1" opacity="0.9607843137254902" d="M 368.5 176 Q 384.4 173.6 391 180.5 L 395.5 192 L 414.5 193 L 435.5 199 L 450.5 200 Q 456.5 204 465.5 205 L 472 210.5 L 478 222.5 L 479 240.5 L 478 242.5 L 482 251.5 L 475 255.5 L 471 266.5 L 454.5 285 L 448 290.5 Q 451 291.5 450 296.5 L 449 299 Q 443 303.5 431 302 L 433 306.5 L 430 308 Q 429.3 322 420.5 329 L 412.5 331 L 365.5 355 L 354.5 359 L 342.5 360 L 327.5 355 L 322 349.5 L 322 343.5 L 326.5 337 Q 328.8 337.8 328 335.5 L 332 328.5 L 361 298.5 L 361 296 L 313.5 313 L 309.5 313 L 302.5 316 L 291.5 318 L 286.5 322 L 281.5 316 Q 278.9 316.8 280 313.5 L 291 298.5 L 291 294 L 287.5 294 L 278.5 290 L 258.5 289 L 257.5 290 Q 247.2 288.8 242 291 L 241.5 289 L 239.5 290 L 240 288.5 Q 240.8 286.3 238.5 287 L 239.5 285 L 241 284.5 Q 238.8 283.2 241.5 282 L 251.5 280 L 276.5 280 L 291.5 284 L 295 286 L 295 291 L 296.5 291 Q 297.2 293.8 301.5 293 L 307.5 290 L 321.5 287 L 327 282.5 L 327 279.5 L 331 270.5 L 345.5 253 Q 350.3 247.1 360 247 L 362 254 Q 359.3 252.9 360 255.5 Q 350 259 345 267.5 L 339 276.5 L 339 280 L 357 273 L 358.5 277 Q 365.4 271.9 375.5 270 L 378 267.5 L 378 259.5 L 381 251.5 L 392 233.5 L 396.5 229 L 400 228 L 401.5 225 L 404.5 224 L 407.5 225 L 407.5 224 L 406 223.5 L 408.5 223 L 412 224 Q 410.9 226.7 413.5 226 L 413.5 227 Q 410.9 226.2 412 229.5 L 411 232 L 404 233 L 395 247.5 L 391 257.5 L 390 274 L 409 273 L 409 269.5 L 414.5 261 L 419.5 260 L 421.5 261 Q 422.7 258.8 427.5 260 Q 433.8 261.8 432 271.5 L 425 285.5 L 425 287.5 L 426 296.5 L 427.5 298 L 431 297 L 430 294.5 L 435.5 293 L 437.5 294 L 438.5 291 L 442 288.5 L 440 287.5 L 441 284.5 L 439 284.5 L 441.5 281 L 454 272 L 457 265.5 L 457 263.5 L 455 260.5 L 466 247.5 Q 468.7 244.2 468 237.5 L 460 228.5 Q 458.9 217.1 451.5 212 L 446.5 209 L 430.5 209 L 421.5 205 L 404.5 202 L 341.5 201 L 340.5 202 L 275.5 202 L 274.5 203 L 259.5 204 Q 254.8 198.2 242.5 200 L 241.5 201 L 227.5 201 L 226.5 202 L 204.5 202 L 204.5 201 L 206 200.5 L 198.5 200 L 188.5 196 L 174.5 194 L 170.5 192 L 148.5 191 L 147.5 190 L 134.5 189 Q 126.6 190.6 122.5 196 L 104.5 199 L 94.5 204 Q 92.7 201.3 86.5 203 L 76.5 205 L 69.5 208 L 57 217.5 L 49 229.5 Q 49.6 234.1 47 235.5 L 47 246.5 L 49 253.5 L 51.5 256 L 53.5 255 L 61.5 260 L 63.5 259 L 63.5 260 L 62 260.5 L 69.5 263 L 72.5 262 L 72.5 263 L 71 263.5 L 75.5 264 L 79.5 263 L 79.5 264 L 76 264.5 L 84 265.5 L 83.5 267 L 92.5 266 L 92.5 267 L 90 267.5 L 100.5 270 L 105.5 269 L 105.5 270 L 103 270.5 L 109.5 271 L 114.5 270 L 114.5 271 L 110 271.5 Q 113.1 273.9 119.5 273 L 120.5 272 L 128.5 272 Q 130 274.5 135.5 273 L 140 271.5 L 133 270.5 L 140.5 270 L 141.5 271 L 152.5 271 L 152.5 270 L 148 269.5 L 155.5 269 L 156.5 270 L 164.5 270 Q 165.3 267.3 169.5 268 L 175 270.5 L 167 271 L 167 274 L 159.5 274 L 157.5 273 L 155 274.5 L 157 275.5 L 144.5 276 L 143.5 277 L 107.5 277 L 100 275.5 L 102 274.5 L 99.5 273 L 94.5 274 L 87 272.5 Q 89.3 271.3 86.5 270 L 85 270.5 L 85.5 272 L 81.5 270 L 74.5 270 L 69 268.5 L 69.5 267 Q 59.5 267.2 55 263 L 55 265.5 L 59.5 270 L 71.5 277 L 91.5 281 L 97.5 281 L 111.5 291 L 139.5 302 L 145.5 302 L 154.5 305 L 164.5 305 L 172.5 307 L 198.5 308 L 199.5 307 L 218.5 307 L 221 306 L 221 313.5 L 222.5 315 L 237.5 315 L 242.5 316 L 253 324.5 L 253.5 328 L 256.5 327 L 260.5 329 L 262 328.5 L 261 331.5 L 263 331.5 L 262 334.5 L 252.5 344 L 248.5 347 L 247.5 345 L 246 345.5 L 244.5 343 L 243 342.5 L 245 339.5 L 243 333.5 L 246 327.5 L 242.5 325 L 238.5 328 L 221.5 329 L 217.5 328 L 216.5 329 L 195.5 329 L 193.5 330 L 192.5 329 L 174.5 329 L 164.5 327 L 153.5 327 L 131.5 322 L 109.5 328 L 106 330.5 Q 106.8 335.3 103.5 336 L 99.5 337 L 98.5 336 L 53.5 336 L 49.5 335 L 42.5 338 L 39 337 Q 37.8 333.3 43 335 L 43 332 L 40 331.5 L 43 331 Q 41.9 328.3 44.5 329 L 44.5 328 L 43 327.5 L 46.5 326 L 83 325 Q 81.9 322.3 84.5 323 L 85.5 322 L 102.5 320 L 114 315.5 Q 114.8 313.3 112.5 314 L 105.5 311 L 101 306.5 L 100 303.5 L 92.5 296 L 88.5 296 L 69.5 312 L 65.5 314 L 61.5 314 L 60.5 313 L 49.5 313 Q 42.9 313.9 40 318.5 Q 41.5 326.5 37.5 329 L 34 330.5 L 35.5 333 L 30 329.5 L 29 320.5 L 31 313.5 L 36.5 307 Q 44.7 301.7 58.5 302 L 63.5 303 L 80 289.5 Q 81.1 286.2 78.5 287 L 73 284 Q 74.1 281.3 71.5 282 L 57 275 Q 58.1 272.3 55.5 273 L 53 269 L 47 266 Q 38.8 255.9 38 237.5 L 41 222.5 L 47.5 215 L 59.5 206 L 71.5 203 L 98.5 193 L 113.5 183 L 134.5 178 L 151.5 178 L 157.5 181 L 167.5 181 L 172.5 183 L 177.5 183 L 190.5 186 L 204.5 192 L 219.5 192 L 220.5 191 L 233.5 191 L 234.5 190 L 246.5 189 Q 249.6 194.4 257.5 195 L 258.5 194 L 279.5 193 L 280.5 192 L 335.5 191 L 343.5 184 L 368.5 176 Z M 165 182 L 165 183 L 167 183 L 165 182 Z M 371 186 L 355 191 L 357 192 L 383 192 Q 385 191 384 187 Q 380 185 371 186 Z M 353 193 L 353 194 L 382 194 L 353 193 Z M 73 267 L 73 268 L 75 268 L 73 267 Z M 146 274 L 146 275 L 148 275 L 146 274 Z M 397 274 L 397 275 L 408 275 L 397 274 Z M 377 279 L 369 282 L 360 289 L 362 292 Q 361 294 364 293 L 365 291 L 375 283 L 377 284 Q 381 282 378 281 Q 379 278 377 279 Z M 408 281 L 407 282 L 392 283 L 390 287 L 379 293 L 363 309 L 364 310 Q 362 308 360 312 L 362 312 L 363 312 L 360 313 L 360 315 L 346 329 Q 347 331 345 330 L 333 346 L 343 350 L 350 350 L 352 350 L 354 350 L 352 349 L 359 347 L 409 321 L 415 320 L 418 317 L 419 313 Q 420 308 417 309 L 417 301 L 418 300 Q 419 295 417 296 Q 412 292 411 286 L 411 283 L 409 283 Q 410 280 408 281 Z M 359 313 L 357 315 L 359 315 L 359 313 Z M 356 316 L 354 319 L 356 318 L 356 316 Z M 352 320 L 350 322 L 352 322 L 352 320 Z " /><path fill="rgb(1,4,3)" stroke="rgb(1,4,3)" stroke-width="1" opacity="0.9607843137254902" d="M 254.5 204 L 258 204.5 L 254.5 205 L 254.5 204 Z " /><path fill="rgb(1,4,3)" stroke="rgb(1,4,3)" stroke-width="1" opacity="0.9607843137254902" d="M 428.5 237 L 431 237.5 Q 428.8 238.8 431.5 240 L 436.5 239 L 439 240.5 L 437.5 241 L 435.5 240 L 436.5 242 L 438.5 243 L 440.5 242 Q 443.3 243.3 441 244.5 L 446.5 250 Q 447.8 247.7 449 250.5 L 447 250.5 L 449 254.5 L 442.5 257 L 441 253 L 438 251.5 Q 438.8 249.3 436.5 250 L 434 248.5 L 434.5 247 L 427 245.5 L 428 243.5 L 427 241 L 425 240.5 L 429 238.5 L 428.5 237 Z " /><path fill="rgb(1,4,3)" stroke="rgb(1,4,3)" stroke-width="1" opacity="0.9607843137254902" d="M 125.5 245 L 147.5 245 L 150 247.5 L 151 252.5 L 146.5 258 L 144.5 259 L 129.5 259 L 123 254.5 Q 123.7 251.9 121 253 L 121 249.5 L 125.5 245 Z " /><path fill="rgb(1,4,3)" stroke="rgb(1,4,3)" stroke-width="1" opacity="0.9607843137254902" d="M 444.5 245 L 445.5 247 L 444.5 245 Z " /><path fill="rgb(1,4,3)" stroke="rgb(1,4,3)" stroke-width="1" opacity="0.9607843137254902" d="M 171.5 266 L 174 266.5 L 171.5 267 L 171.5 266 Z " /><path fill="rgb(1,4,3)" stroke="rgb(1,4,3)" stroke-width="1" opacity="0.9607843137254902" d="M 169.5 272 L 175 272.5 L 169.5 273 L 169.5 272 Z " /><path fill="rgb(1,4,3)" stroke="rgb(1,4,3)" stroke-width="1" opacity="0.9607843137254902" d="M 285.5 327 L 286 329 L 290 331.5 L 290 336.5 L 277 351.5 Q 281.4 353.9 282 359 L 286 358 L 278.5 374 L 272.5 375 L 262 368.5 L 260.5 366 L 249.5 366 L 238.5 369 L 222.5 369 L 218 365.5 L 217 359.5 Q 219.5 351.5 225.5 347 L 235 346 L 237 352 L 235 352.5 Q 237.3 353.8 234.5 355 L 231 356.5 L 230 358.5 L 235.5 359 L 236.5 358 L 245.5 358 L 256.5 355 L 261.5 355 L 266 357 L 266 350.5 L 267 349.5 L 266 347.5 L 277 334 L 283 331.5 L 285.5 327 Z " /></svg>